<svg width="40" height="40" viewBox="0 0 40 40" fill="none" xmlns="http://www.w3.org/2000/svg">
<rect width="40" height="40" rx="20" fill="#FF3E79"/>
<path fill-rule="evenodd" clip-rule="evenodd" d="M13.7931 12.2572C13.4026 11.8667 12.7694 11.8667 12.3789 12.2572L12.2568 12.3794C11.8662 12.7699 11.8662 13.4031 12.2568 13.7936L18.4633 20.0001L12.2568 26.2067C11.8662 26.5972 11.8662 27.2303 12.2568 27.6209L12.3789 27.743C12.7694 28.1335 13.4026 28.1335 13.7931 27.743L19.9996 21.5365L26.2062 27.743C26.5967 28.1335 27.2299 28.1335 27.6204 27.743L27.7425 27.6209C28.1331 27.2303 28.1331 26.5972 27.7425 26.2067L21.536 20.0001L27.7425 13.7936C28.1331 13.4031 28.1331 12.7699 27.7425 12.3794L27.6204 12.2572C27.2299 11.8667 26.5967 11.8667 26.2062 12.2572L19.9996 18.4638L13.7931 12.2572Z" fill="white"/>
</svg>
